# xmcd
#
# Track frame offsets: 
#        150
#        14722
#        29967
#        40800
#        54995
#        68695
#        82602
#        97290
#        113585
#        128225
#
# Disc length: 1921 seconds
#
# Revision: 4
# Processed by: cddbd v1.4PL0 Copyright (c) Steve Scherf et al.
# Submitted via: ExactAudioCopy v0.90b4
#
DISCID=82077f0a
DTITLE=Tracy Byrd - I'm From The Country
DYEAR=1998
DGENRE=
TTITLE0=Gettin' Me Over Mountains
TTITLE1=I Wanna Feel That Way Again
TTITLE2=I Still Love The Night Life
TTITLE3=For Me It's You
TTITLE4=I've Got What It Takes
TTITLE5=On Again, Off Again
TTITLE6=Walkin' The Line
TTITLE7=Back To Texas
TTITLE8=Old One Better
TTITLE9=I'm From The Country
EXTD=
EXTT0=
EXTT1=
EXTT2=
EXTT3=
EXTT4=
EXTT5=
EXTT6=
EXTT7=
EXTT8=
EXTT9=
PLAYORDER=
